<svg width="608" height="758" viewBox="0 0 608 758" fill="none" xmlns="http://www.w3.org/2000/svg">
<g clip-path="url(#clip0_269_10058)">
<rect width="1080.89" height="608" transform="matrix(4.37114e-08 -1 -1 -4.37114e-08 608 919.444)" fill="url(#paint0_linear_269_10058)"/>
<g filter="url(#filter0_f_269_10058)">
<path d="M442.152 277.932L848.858 -21.4203C912.169 286.19 1037.97 903.888 1034.66 913.797C1031.36 923.707 474.496 1000.51 196.477 1037.67L10.6719 583.477L301.766 583.477L456.603 558.703L442.152 277.932Z" fill="#030303"/>
<path d="M442.152 277.932L848.858 -21.4203C912.169 286.19 1037.97 903.888 1034.66 913.797C1031.36 923.707 474.496 1000.51 196.477 1037.67L10.6719 583.477L301.766 583.477L456.603 558.703L442.152 277.932Z" stroke="#030303" stroke-width="0.516124"/>
</g>
<g filter="url(#filter1_f_269_10058)">
<path d="M484.82 -154.908L244.869 118.515L-37.6389 242.735L-146.158 51.4854L-109.394 -585.583L684.761 -594.192L816.142 -559.982L795.339 -464.731L648.975 -370.495L484.82 -154.908Z" fill="url(#paint1_linear_269_10058)"/>
<path d="M484.82 -154.908L244.869 118.515L-37.6389 242.735L-146.158 51.4854L-109.394 -585.583L684.761 -594.192L816.142 -559.982L795.339 -464.731L648.975 -370.495L484.82 -154.908Z" stroke="#030303" stroke-width="0.516124"/>
</g>
</g>
<defs>
<filter id="filter0_f_269_10058" x="-221.967" y="-254.123" width="1489.21" height="1524.33" filterUnits="userSpaceOnUse" color-interpolation-filters="sRGB">
<feFlood flood-opacity="0" result="BackgroundImageFix"/>
<feBlend mode="normal" in="SourceGraphic" in2="BackgroundImageFix" result="shape"/>
<feGaussianBlur stdDeviation="116.128" result="effect1_foregroundBlur_269_10058"/>
</filter>
<filter id="filter1_f_269_10058" x="-275.449" y="-723.482" width="1220.93" height="1095.58" filterUnits="userSpaceOnUse" color-interpolation-filters="sRGB">
<feFlood flood-opacity="0" result="BackgroundImageFix"/>
<feBlend mode="normal" in="SourceGraphic" in2="BackgroundImageFix" result="shape"/>
<feGaussianBlur stdDeviation="64.5155" result="effect1_foregroundBlur_269_10058"/>
</filter>
<linearGradient id="paint0_linear_269_10058" x1="540.444" y1="0" x2="540.444" y2="608" gradientUnits="userSpaceOnUse">
<stop/>
<stop offset="0.516666" stop-color="#001B99"/>
</linearGradient>
<linearGradient id="paint1_linear_269_10058" x1="565.481" y1="-267.437" x2="106.843" y2="-625.92" gradientUnits="userSpaceOnUse">
<stop stop-color="#002DFF"/>
<stop offset="1" stop-color="#00FFF1"/>
</linearGradient>
<clipPath id="clip0_269_10058">
<rect width="1080.89" height="608" fill="white" transform="matrix(4.37114e-08 -1 -1 -4.37114e-08 608 919.444)"/>
</clipPath>
</defs>
</svg>
